<!-- Generator: Adobe Illustrator 24.3.0, SVG Export Plug-In  -->
<svg version="1.1" xmlns="http://www.w3.org/2000/svg" xmlns:xlink="http://www.w3.org/1999/xlink" x="0px" y="0px"
	 width="1423.3px" height="138.1px" viewBox="0 0 1423.3 138.1" style="overflow:visible;enable-background:new 0 0 1423.3 138.1;"
	 xml:space="preserve">
<style type="text/css">
	.st0{fill:#FFF367;}
</style>
<defs>
</defs>
<polygon class="st0" points="1423.3,26.3 1396.8,0 1370.5,26.3 1370.5,26.3 1344.1,0 1317.8,26.3 1317.8,26.3 1291.4,0 1265.1,26.3 
	1265.1,26.3 1238.7,0 1212.4,26.3 1212.4,26.3 1186,0 1159.7,26.3 1159.7,26.3 1133.3,0 1107,26.3 1107,26.3 1080.6,0 1054.3,26.3 
	1054.3,26.3 1027.9,0 1001.6,26.3 1001.6,26.3 975.2,0 948.9,26.3 948.9,26.3 922.5,0 896.2,26.3 896.2,26.3 869.8,0 843.5,26.3 
	843.5,26.3 817.1,0 790.8,26.3 790.8,26.3 764.5,0 738.1,26.3 738.1,26.3 711.8,0 685.4,26.3 685.4,26.3 659.1,0 632.7,26.3 
	632.7,26.3 606.4,0 580,26.3 580,26.3 553.7,0 527.3,26.3 527.3,26.3 501,0 474.6,26.3 474.6,26.3 448.3,0 421.9,26.3 421.9,26.3 
	395.6,0 369.2,26.3 369.2,26.3 342.9,0 316.5,26.3 316.5,26.3 290.2,0 263.8,26.3 263.8,26.3 237.5,0 211.1,26.3 211.1,26.3 
	184.8,0 158.4,26.3 158.4,26.3 132.1,0 105.8,26.3 105.7,26.3 79.4,0 53.1,26.3 53,26.3 26.7,0 0,26.7 0,111.4 26.7,138.1 53,111.8 
	79.4,138.1 105.7,111.8 132.1,138.1 158.4,111.8 184.8,138.1 211.1,111.8 237.5,138.1 263.8,111.8 290.2,138.1 316.5,111.8 
	342.9,138.1 369.2,111.8 395.6,138.1 421.9,111.8 448.3,138.1 474.6,111.8 501,138.1 527.3,111.8 553.7,138.1 580,111.8 
	606.4,138.1 632.7,111.8 659.1,138.1 685.4,111.8 711.8,138.1 738.1,111.8 764.5,138.1 790.8,111.8 817.1,138.1 843.5,111.8 
	869.8,138.1 896.2,111.8 922.5,138.1 948.9,111.8 975.2,138.1 1001.6,111.8 1027.9,138.1 1054.3,111.8 1080.6,138.1 1107,111.8 
	1133.3,138.1 1159.7,111.8 1186,138.1 1212.4,111.8 1238.7,138.1 1265.1,111.8 1291.4,138.1 1317.8,111.8 1344.1,138.1 
	1370.5,111.8 1396.8,138.1 1423.3,111.6 "/>
</svg>
